<svg xmlns="http://www.w3.org/2000/svg" style="display:none">

<defs>
  <g id="stroke-defaults" fill="none" stroke="currentColor" stroke-width="1.7" stroke-linecap="round" stroke-linejoin="round"></g>
</defs>

<symbol id="saved" viewBox="0 0 24 24" fill="none" stroke="currentColor" stroke-width="1.7" stroke-linecap="round" stroke-linejoin="round"><path d="M6.5 3.5h11v17l-5.5-4-5.5 4z"></path></symbol>
<symbol id="account" viewBox="0 0 24 24" fill="none" stroke="currentColor" stroke-width="1.7" stroke-linecap="round" stroke-linejoin="round"><circle cx="12" cy="8.5" r="3.5"></circle><path d="M5.5 20a6.5 6.5 0 0 1 13 0"></path></symbol>
<symbol id="plus" viewBox="0 0 24 24" fill="none" stroke="currentColor" stroke-width="1.7" stroke-linecap="round" stroke-linejoin="round"><path d="M12 5v14M5 12h14"></path></symbol>
<symbol id="mic" viewBox="0 0 24 24" fill="none" stroke="currentColor" stroke-width="1.7" stroke-linecap="round" stroke-linejoin="round"><rect x="9" y="3" width="6" height="11" rx="3"></rect><path d="M5.5 12a6.5 6.5 0 0 0 13 0M12 18.5V21"></path></symbol>
<symbol id="map" viewBox="0 0 24 24" fill="none" stroke="currentColor" stroke-width="1.7" stroke-linecap="round" stroke-linejoin="round"><path d="M12 21s-6.5-6-6.5-11a6.5 6.5 0 0 1 13 0c0 5-6.5 11-6.5 11z"></path><circle cx="12" cy="10" r="2.4"></circle></symbol>
<symbol id="tickets" viewBox="0 0 24 24" fill="none" stroke="currentColor" stroke-width="1.7" stroke-linecap="round" stroke-linejoin="round"><path d="M3 9.5V6h18v3.5a2.5 2.5 0 0 0 0 5V18H3v-3.5a2.5 2.5 0 0 0 0-5z"></path><path d="M12 7v10" stroke-dasharray="2 2.4"></path></symbol>
<symbol id="share" viewBox="0 0 24 24" fill="none" stroke="currentColor" stroke-width="1.7" stroke-linecap="round" stroke-linejoin="round"><path d="M4 12v7a1 1 0 0 0 1 1h14a1 1 0 0 0 1-1v-7M12 15V4M8 7.5 12 3.5l4 4"></path></symbol>
<symbol id="close" viewBox="0 0 24 24" fill="none" stroke="currentColor" stroke-width="1.7" stroke-linecap="round" stroke-linejoin="round"><path d="M6 6l12 12M18 6L6 18"></path></symbol>
<symbol id="back" viewBox="0 0 24 24" fill="none" stroke="currentColor" stroke-width="1.7" stroke-linecap="round" stroke-linejoin="round"><path d="M14.5 5.5 8 12l6.5 6.5"></path></symbol>
<symbol id="done" viewBox="0 0 24 24" fill="none" stroke="currentColor" stroke-width="1.7" stroke-linecap="round" stroke-linejoin="round"><path d="M5 12.5l4.5 4.5L19 7"></path></symbol>
<symbol id="error" viewBox="0 0 24 24" fill="none" stroke="currentColor" stroke-width="1.7" stroke-linecap="round" stroke-linejoin="round"><circle cx="12" cy="12" r="8.5"></circle><path d="M12 7.5v6M12 16.4v.2"></path></symbol>
<symbol id="flyer" viewBox="0 0 24 24" fill="none" stroke="currentColor" stroke-width="1.7" stroke-linecap="round" stroke-linejoin="round"><rect x="3.5" y="6.5" width="17" height="12" rx="2.5"></rect><circle cx="12" cy="12.5" r="3"></circle></symbol>
<symbol id="language" viewBox="0 0 24 24" fill="none" stroke="currentColor" stroke-width="1.7" stroke-linecap="round" stroke-linejoin="round"><circle cx="12" cy="12" r="8.5"></circle><path d="M3.5 12h17M12 3.5c2.5 2.6 2.5 14 0 17M12 3.5c-2.5 2.6-2.5 14 0 17"></path></symbol>
<symbol id="sign-out" viewBox="0 0 24 24" fill="none" stroke="currentColor" stroke-width="1.7" stroke-linecap="round" stroke-linejoin="round"><path d="M14 20H6a1 1 0 0 1-1-1V5a1 1 0 0 1 1-1h8M17 8.5 20.5 12 17 15.5M11 12h9.5"></path></symbol>
<symbol id="attach" viewBox="0 0 24 24" fill="none" stroke="currentColor" stroke-width="1.7" stroke-linecap="round" stroke-linejoin="round"><path d="M20 11.5 12.5 19a4.6 4.6 0 0 1-6.5-6.5l7-7a3 3 0 0 1 4.3 4.3l-7 7a1.4 1.4 0 0 1-2-2l6.3-6.3"></path></symbol>
<symbol id="send" viewBox="0 0 24 24" fill="none" stroke="currentColor" stroke-width="1.9" stroke-linecap="round" stroke-linejoin="round"><path d="M4 12l16-7-7 16-2-7z"></path></symbol>
<symbol id="settings" viewBox="0 0 24 24" fill="none" stroke="currentColor" stroke-width="1.7" stroke-linecap="round" stroke-linejoin="round"><circle cx="12" cy="12" r="3"></circle><path d="M12 4.5v2M12 17.5v2M4.5 12h2M17.5 12h2M6.7 6.7l1.4 1.4M15.9 15.9l1.4 1.4M17.3 6.7l-1.4 1.4M8.1 15.9l-1.4 1.4"></path></symbol>
</svg>